<svg width="28" height="20" viewBox="0 0 28 20" fill="none" xmlns="http://www.w3.org/2000/svg">
<rect width="28" height="20" rx="2" fill="white"/>
<mask id="mask0_2556_1139" style="mask-type:alpha" maskUnits="userSpaceOnUse" x="0" y="0" width="28" height="20">
<rect width="28" height="20" rx="2" fill="white"/>
</mask>
<g mask="url(#mask0_2556_1139)">
<rect width="28" height="20" fill="#30C6E0"/>
<path fill-rule="evenodd" clip-rule="evenodd" d="M14 14C16.2091 14 18 12.2091 18 10C18 7.79086 16.2091 6 14 6C11.7909 6 10 7.79086 10 10C10 12.2091 11.7909 14 14 14Z" fill="#FFCD4B"/>
<path fill-rule="evenodd" clip-rule="evenodd" d="M12.3683 17.1495L14.0001 14.7137L15.6319 17.1495L16.0452 14.2469L18.5723 15.7335L17.6853 12.9389L20.6072 13.1819L18.5955 11.0489L21.3334 10.0001L18.5955 8.95118L20.6072 6.81824L17.6853 7.06117L18.5723 4.26663L16.0452 5.75324L15.6319 2.85059L14.0001 5.28644L12.3683 2.85059L11.9549 5.75324L9.42782 4.26663L10.3148 7.06117L7.39298 6.81824L9.40465 8.95118L6.66675 10.0001L9.40465 11.0489L7.39298 13.1819L10.3148 12.9389L9.42782 15.7335L11.9549 14.2469L12.3683 17.1495ZM18.6667 10.0001C18.6667 12.5774 16.5774 14.6667 14.0001 14.6667C11.4228 14.6667 9.33341 12.5774 9.33341 10.0001C9.33341 7.42273 11.4228 5.33339 14.0001 5.33339C16.5774 5.33339 18.6667 7.42273 18.6667 10.0001Z" fill="#FFCD4B"/>
<path fill-rule="evenodd" clip-rule="evenodd" d="M1.33325 1.66634C1.33325 1.48225 1.48249 1.33301 1.66659 1.33301H2.33325C2.51735 1.33301 2.66659 1.48225 2.66659 1.66634V2.33301C2.66659 2.5171 2.51735 2.66634 2.33325 2.66634H1.66659C1.48249 2.66634 1.33325 2.5171 1.33325 2.33301V1.66634ZM1.33325 4.33301C1.33325 4.14891 1.48249 3.99967 1.66659 3.99967H2.33325C2.51735 3.99967 2.66659 4.14891 2.66659 4.33301V4.99967C2.66659 5.18377 2.51735 5.33301 2.33325 5.33301H1.66659C1.48249 5.33301 1.33325 5.18377 1.33325 4.99967V4.33301ZM1.66659 6.66634C1.48249 6.66634 1.33325 6.81558 1.33325 6.99967V7.66634C1.33325 7.85044 1.48249 7.99967 1.66659 7.99967H2.33325C2.51735 7.99967 2.66659 7.85044 2.66659 7.66634V6.99967C2.66659 6.81558 2.51735 6.66634 2.33325 6.66634H1.66659ZM1.33325 9.66634C1.33325 9.48225 1.48249 9.33301 1.66659 9.33301H2.33325C2.51735 9.33301 2.66659 9.48225 2.66659 9.66634V10.333C2.66659 10.5171 2.51735 10.6663 2.33325 10.6663H1.66659C1.48249 10.6663 1.33325 10.5171 1.33325 10.333V9.66634ZM1.66659 11.9997C1.48249 11.9997 1.33325 12.1489 1.33325 12.333V12.9997C1.33325 13.1838 1.48249 13.333 1.66659 13.333H2.33325C2.51735 13.333 2.66659 13.1838 2.66659 12.9997V12.333C2.66659 12.1489 2.51735 11.9997 2.33325 11.9997H1.66659ZM1.33325 14.9997C1.33325 14.8156 1.48249 14.6663 1.66659 14.6663H2.33325C2.51735 14.6663 2.66659 14.8156 2.66659 14.9997V15.6663C2.66659 15.8504 2.51735 15.9997 2.33325 15.9997H1.66659C1.48249 15.9997 1.33325 15.8504 1.33325 15.6663V14.9997ZM1.66659 17.333C1.48249 17.333 1.33325 17.4822 1.33325 17.6663V18.333C1.33325 18.5171 1.48249 18.6663 1.66659 18.6663H2.33325C2.51735 18.6663 2.66659 18.5171 2.66659 18.333V17.6663C2.66659 17.4822 2.51735 17.333 2.33325 17.333H1.66659ZM2.66659 16.333C2.66659 16.1489 2.81582 15.9997 2.99992 15.9997H3.66658C3.85068 15.9997 3.99992 16.1489 3.99992 16.333V16.9997C3.99992 17.1838 3.85068 17.333 3.66659 17.333H2.99992C2.81582 17.333 2.66659 17.1838 2.66659 16.9997V16.333ZM2.99992 13.333C2.81582 13.333 2.66659 13.4822 2.66659 13.6663V14.333C2.66659 14.5171 2.81582 14.6663 2.99992 14.6663H3.66659C3.85068 14.6663 3.99992 14.5171 3.99992 14.333V13.6663C3.99992 13.4822 3.85068 13.333 3.66658 13.333H2.99992ZM2.66659 10.9997C2.66659 10.8156 2.81582 10.6663 2.99992 10.6663H3.66658C3.85068 10.6663 3.99992 10.8156 3.99992 10.9997V11.6663C3.99992 11.8504 3.85068 11.9997 3.66659 11.9997H2.99992C2.81582 11.9997 2.66659 11.8504 2.66659 11.6663V10.9997ZM2.99992 7.99967C2.81582 7.99967 2.66659 8.14891 2.66659 8.33301V8.99967C2.66659 9.18377 2.81582 9.33301 2.99992 9.33301H3.66659C3.85068 9.33301 3.99992 9.18377 3.99992 8.99967V8.33301C3.99992 8.14891 3.85068 7.99967 3.66658 7.99967H2.99992ZM2.66659 5.66634C2.66659 5.48225 2.81582 5.33301 2.99992 5.33301H3.66658C3.85068 5.33301 3.99992 5.48225 3.99992 5.66634V6.33301C3.99992 6.5171 3.85068 6.66634 3.66659 6.66634H2.99992C2.81582 6.66634 2.66659 6.5171 2.66659 6.33301V5.66634ZM2.99992 2.66634C2.81582 2.66634 2.66659 2.81558 2.66659 2.99967V3.66634C2.66659 3.85044 2.81582 3.99967 2.99992 3.99967H3.66659C3.85068 3.99967 3.99992 3.85044 3.99992 3.66634V2.99967C3.99992 2.81558 3.85068 2.66634 3.66658 2.66634H2.99992Z" fill="#FFCD4B"/>
</g>
</svg>
